<svg width="164" height="34" viewBox="0 0 164 34" fill="none" xmlns="http://www.w3.org/2000/svg">
<path d="M9.78564 32H8.48486V2.08203H9.78564V32ZM7.18408 32H5.8833V2.08203H7.18408V32ZM4.58252 32H3.28174V2.08203H4.58252V32ZM1.98096 32H0.680176V2.08203H1.98096V32ZM19.2886 17.041L26.9307 2.08203H28.376L20.7339 17.041L28.376 32H26.9307L19.2886 17.041ZM16.3799 17.041L24.022 2.08203H25.4673L17.8252 17.041L25.4673 32H24.022L16.3799 17.041ZM13.4712 17.041L21.1133 2.08203H22.5586L14.9165 17.041L22.5586 32H21.1133L13.4712 17.041ZM10.5444 17.041L18.2046 2.08203H19.6499L11.9897 17.041L19.6499 32H18.2046L10.5444 17.041ZM42.9736 13.7891H40.7876C39.8602 13.7891 39.1917 13.5542 38.7822 13.0845C38.3727 12.6027 38.168 11.9704 38.168 11.1875C38.168 9.45312 39.4627 8.58594 42.0522 8.58594C44.4852 8.58594 46.3159 8.94727 47.5444 9.66992L46.4966 10.4648C45.6535 10.0794 44.172 9.88672 42.0522 9.88672C41.0164 9.88672 40.3179 10.0011 39.9565 10.23C39.6073 10.4588 39.4326 10.778 39.4326 11.1875C39.4326 11.597 39.529 11.9162 39.7217 12.145C39.9144 12.3739 40.2697 12.4883 40.7876 12.4883H43.0278C44.6538 12.4883 46.1172 12.7653 47.418 13.3193C48.7308 13.8734 49.8088 14.6322 50.6519 15.5957C51.495 16.5472 52.1393 17.6493 52.585 18.9019C53.0306 20.1424 53.2534 21.4733 53.2534 22.8945C53.2534 24.0508 53.0908 25.1468 52.7656 26.1826C52.4404 27.2184 51.9466 28.1699 51.2842 29.0371C50.6338 29.9043 49.8449 30.6571 48.9175 31.2954C48.0021 31.9217 46.9061 32.4095 45.6294 32.7588C44.3647 33.1201 42.9917 33.3008 41.5103 33.3008C39.1857 33.3008 37.0057 32.9455 34.9702 32.2349C32.9468 31.5363 31.2606 30.5547 29.9116 29.29L30.9595 28.5132C32.188 29.6213 33.7236 30.4824 35.5664 31.0967C37.4212 31.6989 39.4025 32 41.5103 32C43.1603 32 44.6478 31.7651 45.9727 31.2954C47.3096 30.8136 48.4056 30.1572 49.2607 29.3262C50.1279 28.4951 50.7904 27.5316 51.248 26.4355C51.7178 25.3395 51.9526 24.1592 51.9526 22.8945C51.9526 21.2204 51.6154 19.7088 50.9409 18.3599C50.2664 16.9989 49.2367 15.8968 47.8516 15.0537C46.4785 14.2106 44.8525 13.7891 42.9736 13.7891ZM40.7876 15.0898H42.8472C45.2922 15.0898 47.2012 15.8366 48.5742 17.3301C49.9593 18.8236 50.6519 20.6784 50.6519 22.8945C50.6519 25.1468 49.8509 27.0137 48.249 28.4951C46.6471 29.9645 44.4009 30.6992 41.5103 30.6992C39.5832 30.6992 37.7826 30.4342 36.1084 29.9043C34.4342 29.3743 33.0431 28.6276 31.9351 27.6641L32.9468 26.8511C33.9344 27.658 35.175 28.2843 36.6685 28.73C38.174 29.1756 39.7879 29.3984 41.5103 29.3984C44.0516 29.3984 45.9907 28.7902 47.3276 27.5737C48.6766 26.3573 49.3511 24.7975 49.3511 22.8945C49.3511 21.0156 48.785 19.4619 47.6528 18.2334C46.5327 17.0049 44.9248 16.3906 42.8291 16.3906H40.7876C39.0291 16.3906 37.7103 15.9089 36.8311 14.9453C35.9518 13.9818 35.5122 12.7292 35.5122 11.1875C35.5122 9.64583 36.0542 8.39323 37.1382 7.42969C38.2342 6.46615 39.8722 5.98438 42.0522 5.98438C43.5819 5.98438 45.0031 6.16504 46.3159 6.52637C47.6287 6.87565 48.7127 7.38151 49.5679 8.04395L48.5381 8.83887C47.0326 7.80306 44.8706 7.28516 42.0522 7.28516C40.2336 7.28516 38.9027 7.64648 38.0596 8.36914C37.2285 9.07975 36.813 10.0192 36.813 11.1875C36.813 12.3678 37.1201 13.3133 37.7344 14.0239C38.3607 14.7345 39.3784 15.0898 40.7876 15.0898ZM40.7876 17.6914H42.7749C44.5334 17.6914 45.8522 18.1792 46.7314 19.1548C47.6107 20.1304 48.0503 21.377 48.0503 22.8945C48.0503 24.4362 47.5023 25.6888 46.4062 26.6523C45.3223 27.6159 43.6903 28.0977 41.5103 28.0977C39.9806 28.0977 38.5534 27.923 37.2285 27.5737C35.9157 27.2124 34.8317 26.7005 33.9766 26.0381L35.0063 25.2432C36.5119 26.279 38.6799 26.7969 41.5103 26.7969C43.3289 26.7969 44.6538 26.4416 45.4849 25.731C46.328 25.0083 46.7495 24.0628 46.7495 22.8945C46.7495 21.7262 46.4364 20.7868 45.8101 20.0762C45.1838 19.3535 44.166 18.9922 42.7568 18.9922H40.7876C38.3185 18.9922 36.3854 18.2575 34.9883 16.7881C33.6032 15.3066 32.9106 13.4398 32.9106 11.1875C32.9106 8.93522 33.7116 7.07438 35.3135 5.60498C36.9154 4.12354 39.1616 3.38281 42.0522 3.38281C43.9793 3.38281 45.7739 3.64779 47.436 4.17773C49.1102 4.70768 50.5013 5.45443 51.6094 6.41797L50.5977 7.23096C49.61 6.42399 48.3695 5.79769 46.876 5.35205C45.3825 4.90641 43.7746 4.68359 42.0522 4.68359C39.5109 4.68359 37.5658 5.29183 36.2168 6.5083C34.8799 7.72477 34.2114 9.28451 34.2114 11.1875C34.2114 13.0785 34.7775 14.6382 35.9097 15.8667C37.0418 17.0832 38.6678 17.6914 40.7876 17.6914ZM40.7876 20.293H42.7749C43.7023 20.293 44.3708 20.5339 44.7803 21.0156C45.1898 21.4974 45.3945 22.1237 45.3945 22.8945C45.3945 24.6289 44.0998 25.4961 41.5103 25.4961C39.0653 25.4961 37.2285 25.1348 36 24.4121L37.0479 23.6172C37.891 24.0026 39.3784 24.1953 41.5103 24.1953C42.5461 24.1953 43.2386 24.0809 43.5879 23.8521C43.9492 23.6232 44.1299 23.304 44.1299 22.8945C44.1299 22.4971 44.0275 22.1839 43.8228 21.9551C43.63 21.7142 43.2687 21.5938 42.7388 21.5938H40.7876C39.1255 21.5938 37.62 21.3228 36.271 20.7808C34.9341 20.2388 33.832 19.492 32.9648 18.5405C32.1097 17.589 31.4533 16.487 30.9956 15.2344C30.5379 13.9818 30.3091 12.6328 30.3091 11.1875C30.3091 10.0312 30.4717 8.93522 30.7969 7.89941C31.1221 6.86361 31.6099 5.91211 32.2603 5.04492C32.9227 4.17773 33.7116 3.43099 34.627 2.80469C35.5544 2.16634 36.6504 1.67253 37.915 1.32324C39.1917 0.961914 40.5708 0.78125 42.0522 0.78125C44.3768 0.78125 46.5508 1.13656 48.5742 1.84717C50.5977 2.54574 52.2839 3.52734 53.6328 4.79199L52.585 5.56885C51.3564 4.46077 49.8208 3.60563 47.978 3.00342C46.1353 2.38916 44.16 2.08203 42.0522 2.08203C40.4022 2.08203 38.9087 2.32292 37.5718 2.80469C36.2469 3.27441 35.1509 3.9248 34.2837 4.75586C33.4285 5.58691 32.7661 6.55046 32.2964 7.64648C31.8387 8.74251 31.6099 9.92285 31.6099 11.1875C31.6099 12.8857 31.9531 14.4154 32.6396 15.7764C33.3262 17.1374 34.374 18.2334 35.7832 19.0645C37.1924 19.8835 38.8605 20.293 40.7876 20.293ZM62.6479 32H61.3472V2.08203H62.6479V32ZM60.0464 32H58.7456V2.08203H60.0464V32ZM57.4448 32H56.144V2.08203H57.4448V32ZM65.2495 25.4961H79.0884V26.7969H65.2495V28.0977H79.0884V29.3984H65.2495V30.6992H79.0884V32H63.9487V2.08203H79.0884V3.38281H65.2495V4.68359H79.0884V5.98438H65.2495V7.28516H79.0884V8.58594H65.2495V13.7891H72.3496V15.0898H65.2495V16.3906H72.3496V17.6914H65.2495V18.9922H72.3496V20.293H65.2495V25.4961Z" fill="black"/>
<path d="M107.561 17.6011L106.26 15.4512V2.08203H107.561V17.6011ZM110.163 21.8647L108.862 19.6787V2.08203H110.163V21.8647ZM112.764 26.1826L111.463 23.9785V2.08203H112.764V26.1826ZM94.1196 16.481L95.4204 18.6309V32H94.1196V16.481ZM91.5181 12.2173L92.8188 14.4033V32H91.5181V12.2173ZM88.9165 7.89941L90.2173 10.1035V32H88.9165V7.89941ZM89.3682 2.08203H90.8857L109.277 32H107.76L89.3682 2.08203ZM92.4395 2.08203H93.9751L112.349 32H110.795L92.4395 2.08203ZM95.4927 2.08203H97.0103L114.065 29.8862V2.08203H115.366V32C115.366 32 114.854 32 113.83 32L95.4927 2.08203ZM87.6157 4.1958V32H86.3149V2.08203C86.3149 2.08203 86.8328 2.08203 87.8687 2.08203L106.206 32H104.707L87.6157 4.1958ZM126.603 2.08203H127.904V32H126.603V2.08203ZM124.001 2.08203H125.302V32H124.001V2.08203ZM121.4 2.08203H122.701V32H121.4V2.08203ZM118.798 2.08203H120.099V32H118.798V2.08203ZM144.254 23.2197L144.778 21.9189H149.222L149.746 23.2197H144.254ZM143.242 25.8213L143.748 24.5205H150.234L150.794 25.8213H143.242ZM142.23 28.4229L142.736 27.1221H151.264L151.806 28.4229H142.23ZM131.662 32H130.252L142.086 2.08203H143.495L155.311 32H153.919L142.791 3.83447L131.662 32ZM142.953 6.92383L143.694 8.58594L134.444 32H133.053L142.953 6.92383ZM144.398 10.3564L145.085 12.145L137.262 32H135.853L144.398 10.3564ZM145.771 13.9336L146.458 15.7583L140.044 32H138.653L145.771 13.9336ZM163.711 32H162.302L150.487 2.08203H151.878L163.711 32ZM149.078 2.08203L160.911 32H159.52L147.687 2.08203H149.078ZM146.277 2.08203L158.111 32H156.702L144.886 2.08203H146.277Z" fill="white"/>
</svg>
